<svg xmlns="http://www.w3.org/2000/svg" xmlns:xlink="http://www.w3.org/1999/xlink" width="500" zoomAndPan="magnify" viewBox="0 0 375 374.999991" height="500" preserveAspectRatio="xMidYMid meet" version="1.0"><defs><clipPath id="f893db358f"><path d="M 17 9 L 291 9 L 291 319 L 17 319 Z M 17 9 " clip-rule="nonzero"/></clipPath><clipPath id="74324b9fa0"><path d="M 347.433594 213.429688 L 16.296875 322.855469 L -51.246094 118.476562 L 279.894531 9.050781 Z M 347.433594 213.429688 " clip-rule="nonzero"/></clipPath><clipPath id="7049abb854"><path d="M 347.433594 213.429688 L 16.296875 322.855469 L -51.246094 118.476562 L 279.894531 9.050781 Z M 347.433594 213.429688 " clip-rule="nonzero"/></clipPath><clipPath id="834cae7341"><path d="M 14 263 L 81 263 L 81 320 L 14 320 Z M 14 263 " clip-rule="nonzero"/></clipPath><clipPath id="04882f361b"><path d="M 347.433594 213.429688 L 16.296875 322.855469 L -51.246094 118.476562 L 279.894531 9.050781 Z M 347.433594 213.429688 " clip-rule="nonzero"/></clipPath><clipPath id="63e02a1b54"><path d="M 347.433594 213.429688 L 16.296875 322.855469 L -51.246094 118.476562 L 279.894531 9.050781 Z M 347.433594 213.429688 " clip-rule="nonzero"/></clipPath></defs><g clip-path="url(#f893db358f)"><g clip-path="url(#74324b9fa0)"><g clip-path="url(#7049abb854)"><path fill="#8c52ff" d="M 92.101562 220.558594 C 85.238281 216.890625 79.207031 212.203125 74.007812 206.484375 C 61.804688 191.960938 60.710938 179.25 70.730469 168.351562 L 70.734375 168.351562 C 73.820312 167.15625 76.757812 166.621094 79.550781 166.746094 C 85.238281 166.992188 90.316406 169.96875 94.785156 175.667969 C 100.507812 184.464844 101.175781 195.4375 96.789062 208.578125 C 96.78125 208.605469 96.769531 208.628906 96.761719 208.65625 C 95.585938 212.457031 94.03125 216.421875 92.105469 220.558594 Z M 21.046875 318.378906 C 22.066406 318.421875 23.097656 318.066406 23.890625 317.300781 C 58.71875 283.695312 82.617188 254.835938 95.585938 230.71875 C 105.300781 234.734375 116.292969 237.113281 128.566406 237.847656 C 128.589844 237.847656 128.609375 237.851562 128.628906 237.851562 C 128.796875 237.859375 128.96875 237.855469 129.136719 237.839844 C 178.214844 233.527344 218.628906 212.882812 250.371094 175.90625 L 250.375 175.90625 C 290.117188 130.71875 300.324219 76.300781 281 12.648438 C 280.511719 11.046875 279.070312 9.992188 277.484375 9.921875 C 277.0625 9.90625 276.628906 9.957031 276.199219 10.085938 C 274.167969 10.703125 273.019531 12.851562 273.636719 14.886719 C 292.136719 75.816406 282.445312 127.808594 244.566406 170.859375 C 244.554688 170.871094 244.542969 170.882812 244.535156 170.894531 C 214.210938 206.210938 175.617188 225.964844 128.746094 230.148438 C 117.691406 229.460938 107.796875 227.347656 99.0625 223.808594 L 99.066406 223.808594 C 101.152344 219.34375 102.835938 215.050781 104.113281 210.9375 C 109.28125 195.410156 108.289062 182.203125 101.140625 171.324219 C 101.082031 171.238281 101.023438 171.15625 100.960938 171.074219 C 94.925781 163.304688 88.015625 159.246094 80.242188 158.90625 C 76.085938 158.726562 71.679688 159.605469 67.027344 161.546875 C 66.539062 161.75 66.101562 162.050781 65.734375 162.429688 C 51.910156 176.808594 52.726562 193.167969 68.183594 211.515625 C 68.214844 211.554688 68.246094 211.589844 68.28125 211.625 C 74.144531 218.078125 80.925781 223.355469 88.632812 227.449219 C 76.085938 250.679688 52.722656 278.785156 18.546875 311.765625 C 17.015625 313.242188 16.972656 315.675781 18.449219 317.207031 C 19.160156 317.945312 20.097656 318.335938 21.046875 318.378906 Z M 21.046875 318.378906 " fill-opacity="1" fill-rule="nonzero"/></g></g></g><g clip-path="url(#834cae7341)"><g clip-path="url(#04882f361b)"><g clip-path="url(#63e02a1b54)"><path fill="#8c52ff" d="M 22.660156 309.992188 C 22.367188 309.804688 22.054688 309.652344 21.730469 309.53125 C 22.042969 309.640625 22.355469 309.792969 22.664062 309.992188 Z M 20.164062 319.011719 C 20.914062 319.046875 21.691406 318.910156 22.496094 318.609375 C 39.484375 312.445312 51.957031 308.175781 59.914062 305.804688 L 59.929688 305.800781 C 66.789062 303.726562 72.140625 302.589844 75.980469 302.398438 C 78.636719 302.265625 80.679688 300.003906 80.542969 297.351562 C 80.417969 294.851562 78.40625 292.894531 75.957031 292.785156 C 75.804688 292.78125 75.652344 292.78125 75.496094 292.789062 C 70.878906 293.019531 64.765625 294.285156 57.164062 296.585938 C 50.347656 298.617188 40.359375 301.984375 27.207031 306.6875 L 27.203125 306.6875 C 33.351562 294.046875 38.875 281.742188 43.777344 269.765625 C 44.785156 267.304688 43.609375 264.496094 41.148438 263.492188 C 40.621094 263.273438 40.078125 263.160156 39.535156 263.136719 C 37.566406 263.050781 35.664062 264.191406 34.875 266.121094 C 29.703125 278.753906 23.824219 291.765625 17.238281 305.164062 C 17.210938 305.21875 17.1875 305.273438 17.164062 305.324219 C 15.835938 308.300781 15.0625 310.566406 14.847656 312.121094 C 14.816406 312.339844 14.792969 312.550781 14.78125 312.753906 C 14.554688 316.160156 15.84375 318.144531 18.644531 318.703125 L 18.648438 318.703125 C 19.140625 318.886719 19.644531 318.988281 20.164062 319.011719 Z M 20.164062 319.011719 " fill-opacity="1" fill-rule="nonzero"/></g></g></g></svg>